<svg width="390" height="470" viewBox="0 0 390 470" fill="none" xmlns="http://www.w3.org/2000/svg">
<rect x="24" y="200" width="107" height="100" fill="#E9E9E9"/>
<rect x="24" y="243" width="52" height="101" fill="#E9E9E9"/>
<rect x="107.984" y="286.271" width="20.3561" height="73.9857" transform="rotate(38.4173 107.984 286.271)" fill="#E9E9E9"/>
<rect x="107.984" y="286.271" width="20.3561" height="97.2177" transform="rotate(38.4173 107.984 286.271)" fill="#E9E9E9"/>
<rect x="121.662" y="293.06" width="10.2735" height="17.1591" transform="rotate(38.4173 121.662 293.06)" fill="#E9E9E9"/>
<rect x="71" y="296" width="30" height="33" fill="#E9E9E9"/>
<rect x="39" y="327" width="30" height="33" fill="#E9E9E9"/>
<rect x="24" y="333" width="41" height="74" fill="#E9E9E9"/>
<rect x="195" y="253" width="138" height="155" fill="#E9E9E9"/>
<rect x="195" y="14" width="138" height="95" fill="#E9E9E9"/>
<rect x="244" y="109" width="89" height="18" fill="#E9E9E9"/>
<rect x="200.405" y="93.1341" width="53.4435" height="18" transform="rotate(18.2485 200.405 93.1341)" fill="#E9E9E9"/>
<rect x="100.05" y="92.4196" width="148.729" height="42.9661" transform="rotate(17.3042 100.05 92.4196)" fill="#E9E9E9"/>
<rect x="24" y="14" width="138" height="47" fill="#E9E9E9"/>
<rect x="71" y="14" width="88" height="47" transform="rotate(90 71 14)" fill="#E9E9E9"/>
<path d="M162.474 386.118V408.072H63.9495M333.339 387.216V408.072H195.135V360.597M195.135 360.597L195.405 251.925H162.474V360.597H195.135ZM366 408.072V361.146M334.418 151.486H270.175V251.651H366V361.146M334.418 151.486L333.339 361.146H366M334.418 151.486V14H24V236.009M63.9495 408.072H24V340.564M63.9495 408.072L24 340.564M24 340.564V272.507M24 272.507H45.3244V236.009H24M24 272.507V236.009M61.7901 192.375V200.882H130.082V192.375H61.7901Z" stroke="black" stroke-width="2"/>
<rect x="0.174165" y="1.41482" width="3.4328" height="59.5812" transform="matrix(0.783248 0.62171 -0.609083 0.793107 116.123 308.054)" stroke="black" stroke-width="2"/>
<rect x="-0.999872" y="1.01602" width="29.9458" height="25.9085" transform="matrix(-4.37114e-08 1 -0.999872 0.0160194 248.016 314.247)" stroke="black" stroke-width="2"/>
<rect x="0.174165" y="1.41482" width="3.4328" height="23.7515" transform="matrix(0.783248 0.62171 -0.609083 0.793107 127.443 300.4)" stroke="black" stroke-width="2"/>
<rect x="104.261" y="82.2367" width="147" height="10" transform="rotate(17.4951 104.261 82.2367)" stroke="black" stroke-width="2"/>
<rect x="207.202" y="91.6173" width="29" height="22" transform="rotate(17.4951 207.202 91.6173)" stroke="black" stroke-width="2"/>
<path d="M180.524 430V390.233C180.524 381.397 173.36 374.233 164.524 374.233H67.2803C58.4438 374.233 51.2803 367.07 51.2803 358.233V311.888C51.2803 303.051 58.4438 295.888 67.2803 295.888H73.6537C82.4903 295.888 89.6537 288.724 89.6537 279.888V236.806C89.6537 227.97 82.4903 220.806 73.6537 220.806H65.415C56.5784 220.806 49.415 213.643 49.415 204.806V59.7127C49.415 50.8762 56.5784 43.7127 65.415 43.7127H300.163C309 43.7127 316.163 50.8762 316.163 59.7127V78.0389C316.163 86.8755 309 94.0389 300.163 94.0389H269.007C260.17 94.0389 253.007 101.202 253.007 110.039V358.233C253.007 367.07 260.17 374.233 269.007 374.233H332.94C341.777 374.233 348.94 381.397 348.94 390.233V430" stroke="#FE9BC9" stroke-width="2"/>
<path d="M253.007 209.653V209.653C253.164 201.939 248.151 195.07 240.756 192.868L59.9222 139.016C54.2018 137.312 50.0608 132.344 49.415 126.411V126.411" stroke="#FE9BC9" stroke-width="2"/>
<path d="M57.143 328.532L51.2804 322.547L45.4178 328.532" stroke="#FE9BC9" stroke-width="2"/>
<path d="M55.0111 111.721L49.1485 105.736L43.2859 111.721" stroke="#FE9BC9" stroke-width="2"/>
<path d="M174.661 49.9695L180.524 43.9847L174.661 38" stroke="#FE9BC9" stroke-width="2"/>
<path d="M188.329 171.443L180.835 175.064L184.382 182.714" stroke="#FE9BC9" stroke-width="2"/>
<path d="M246.815 277.503L252.944 283.488L259.073 277.503" stroke="#FE9BC9" stroke-width="2"/>
<path d="M342.811 424.015L348.94 430L355.069 424.015" stroke="#FE9BC9" stroke-width="2"/>
<path d="M186.653 423.383L180.524 417.398L174.395 423.383" stroke="#FE9BC9" stroke-width="2"/>
<path d="M316.696 380.49L322.559 374.233L316.696 367.976" stroke="#FE9BC9" stroke-width="2"/>
<path d="M348.84 446.121V447.393H344.055V448.172H347.486V451.207H340.555V451.891H347.814V453.176H338.846V450.031H345.764V449.416H338.832V448.172H342.318V447.393H337.547V446.121H348.84ZM337.984 444.494C340.473 444.385 341.737 443.79 342.1 443.072H338.613V441.787H342.318V440.803H344.041V441.787H347.773V443.072H344.253C344.608 443.79 345.88 444.385 348.389 444.494L347.883 445.779C345.572 445.663 343.966 445.082 343.18 444.146C342.394 445.082 340.794 445.663 338.463 445.779L337.984 444.494ZM359.141 441.541V442.662C359.134 443.824 359.134 445.089 358.819 446.832H360.467V448.24H355.613V453.271H353.863V448.24H349.119V446.832H357.049C357.37 445.232 357.397 444.009 357.404 442.936H350.418V441.541H359.141Z" fill="black"/>
<path d="M179.438 440.816V447.502H177.688V440.816H179.438ZM169.211 444.289C169.211 442.539 170.674 441.322 172.615 441.336C174.55 441.322 176.013 442.539 176.02 444.289C176.013 445.984 174.55 447.201 172.615 447.201C170.674 447.201 169.211 445.984 169.211 444.289ZM170.92 444.289C170.906 445.212 171.617 445.766 172.615 445.766C173.586 445.766 174.29 445.212 174.297 444.289C174.29 443.353 173.586 442.778 172.615 442.785C171.617 442.778 170.906 443.353 170.92 444.289ZM171.111 453.121V448.049H172.834V449.211H177.701V448.049H179.438V453.121H171.111ZM172.834 451.713H177.701V450.564H172.834V451.713ZM190.641 441.541V442.662C190.634 443.824 190.634 445.089 190.319 446.832H191.967V448.24H187.113V453.271H185.363V448.24H180.619V446.832H188.549C188.87 445.232 188.897 444.009 188.904 442.936H181.918V441.541H190.641Z" fill="black"/>
<path d="M88.7676 314.273V327H86.1133V316.787H86.043L83.125 318.615V316.277L86.2715 314.273H88.7676Z" fill="#111111"/>
<path d="M228.8 335.176C226.005 335.176 224.001 333.638 223.948 331.414H226.62C226.664 332.363 227.587 332.987 228.817 332.996C230.083 332.987 230.988 332.284 230.979 331.256C230.988 330.219 230.065 329.489 228.571 329.48H227.394V327.529H228.571C229.828 327.529 230.707 326.844 230.698 325.842C230.707 324.866 229.96 324.198 228.835 324.207C227.71 324.198 226.787 324.831 226.743 325.807H224.212C224.256 323.618 226.225 322.098 228.835 322.098C231.489 322.098 233.256 323.671 233.247 325.684C233.256 327.107 232.263 328.118 230.839 328.373V328.479C232.711 328.707 233.739 329.841 233.722 331.432C233.739 333.611 231.674 335.176 228.8 335.176ZM234.874 332.75V330.658L240.253 322.273H243.575V330.623H245.192V332.75H243.575V335H241.062V332.75H234.874ZM237.546 330.623H241.097V325.174H240.974L237.546 330.518V330.623Z" fill="#111111"/>
<path d="M124.875 126.273V139H122.221V128.787H122.15L119.232 130.615V128.277L122.379 126.273H124.875ZM132.004 139.176C129.35 139.176 127.407 137.611 127.363 135.414H129.93C129.991 136.407 130.896 137.093 132.004 137.084C133.322 137.093 134.263 136.161 134.254 134.834C134.263 133.48 133.305 132.54 131.969 132.531C131.011 132.531 130.343 132.892 129.965 133.604H127.574L128.26 126.273H136.1V128.436H130.439L130.088 131.652H130.193C130.659 131.028 131.626 130.571 132.742 130.58C135.08 130.571 136.82 132.32 136.82 134.764C136.82 137.339 134.869 139.176 132.004 139.176ZM144.055 131.6V133.674H138.254V131.6H144.055ZM151.184 126.273V139H148.529V128.787H148.459L145.541 130.615V128.277L148.688 126.273H151.184ZM155.799 137.699L154.287 142.709H152.424L153.303 137.699H155.799ZM166.172 126.273V139H163.518V128.787H163.447L160.529 130.615V128.277L163.676 126.273H166.172ZM173.301 139.176C170.646 139.176 168.704 137.611 168.66 135.414H171.227C171.288 136.407 172.193 137.093 173.301 137.084C174.619 137.093 175.56 136.161 175.551 134.834C175.56 133.48 174.602 132.54 173.266 132.531C172.308 132.531 171.64 132.892 171.262 133.604H168.871L169.557 126.273H177.396V128.436H171.736L171.385 131.652H171.49C171.956 131.028 172.923 130.571 174.039 130.58C176.377 130.571 178.117 132.32 178.117 134.764C178.117 137.339 176.166 139.176 173.301 139.176ZM185.352 131.6V133.674H179.551V131.6H185.352ZM186.627 139L186.609 137.084L191.18 132.883C192.366 131.749 193.008 131.046 193.008 130.035C193.008 128.901 192.155 128.198 190.986 128.207C189.791 128.198 189.009 128.954 189.018 130.176H186.504C186.495 127.688 188.341 126.098 191.021 126.098C193.746 126.098 195.557 127.653 195.557 129.859C195.557 131.31 194.854 132.496 192.234 134.869L190.301 136.75V136.82H195.732V139H186.627Z" fill="#111111"/>
<path d="M35.4844 37L35.4668 35.084L40.0371 30.8828C41.2236 29.749 41.8652 29.0459 41.8652 28.0352C41.8652 26.9014 41.0127 26.1982 39.8438 26.207C38.6484 26.1982 37.8662 26.9541 37.875 28.1758H35.3613C35.3525 25.6885 37.1982 24.0977 39.8789 24.0977C42.6035 24.0977 44.4141 25.6533 44.4141 27.8594C44.4141 29.3096 43.7109 30.4961 41.0918 32.8691L39.1582 34.75V34.8203H44.5898V37H35.4844ZM45.4785 34.75V32.6582L50.8574 24.2734H54.1797V32.623H55.7969V34.75H54.1797V37H51.666V34.75H45.4785ZM48.1504 32.623H51.7012V27.1738H51.5781L48.1504 32.5176V32.623Z" fill="#111111"/>
<path d="M229.171 35L229.153 33.084L233.724 28.8828C234.91 27.749 235.552 27.0459 235.552 26.0352C235.552 24.9014 234.699 24.1982 233.53 24.207C232.335 24.1982 231.553 24.9541 231.562 26.1758H229.048C229.039 23.6885 230.885 22.0977 233.565 22.0977C236.29 22.0977 238.101 23.6533 238.101 25.8594C238.101 27.3096 237.397 28.4961 234.778 30.8691L232.845 32.75V32.8203H238.276V35H229.171ZM244.298 22.0977C246.935 22.1064 249.431 23.6797 249.431 28.3027C249.439 32.627 247.392 35.1758 244.192 35.1758C241.635 35.1758 239.877 33.5674 239.622 31.4141H242.224C242.443 32.3545 243.173 32.9082 244.192 32.9082C245.924 32.9082 246.838 31.3525 246.847 28.8125H246.741C246.144 29.9375 244.887 30.6055 243.472 30.6055C241.187 30.6055 239.499 28.8828 239.481 26.5098C239.481 23.9521 241.424 22.0889 244.298 22.0977ZM242.065 26.4395C242.065 27.6963 242.988 28.6719 244.298 28.6719C245.59 28.6719 246.583 27.6436 246.583 26.4219C246.565 25.209 245.616 24.1807 244.315 24.1719C243.015 24.1807 242.048 25.1738 242.065 26.4395ZM259.083 35.1758C256.288 35.1758 254.284 33.6377 254.231 31.4141H256.903C256.947 32.3633 257.87 32.9873 259.101 32.9961C260.366 32.9873 261.271 32.2842 261.263 31.2559C261.271 30.2188 260.349 29.4893 258.854 29.4805H257.677V27.5293H258.854C260.111 27.5293 260.99 26.8438 260.981 25.8418C260.99 24.8662 260.243 24.1982 259.118 24.207C257.993 24.1982 257.07 24.8311 257.026 25.8066H254.495C254.539 23.6182 256.508 22.0977 259.118 22.0977C261.772 22.0977 263.539 23.6709 263.53 25.6836C263.539 27.1074 262.546 28.1182 261.122 28.373V28.4785C262.994 28.707 264.022 29.8408 264.005 31.4316C264.022 33.6113 261.957 35.1758 259.083 35.1758ZM270.308 35.1758C267.117 35.1758 265.192 32.8027 265.192 28.6367C265.192 24.4795 267.135 22.0977 270.308 22.0977C273.48 22.0977 275.423 24.4795 275.423 28.6367C275.423 32.8203 273.489 35.1758 270.308 35.1758ZM267.899 28.6367C267.882 31.5723 268.831 32.9961 270.308 32.9961C271.784 32.9961 272.725 31.5723 272.716 28.6367C272.725 25.7275 271.775 24.2686 270.308 24.2598C268.84 24.2686 267.899 25.7275 267.899 28.6367ZM285.11 35.1758C282.315 35.1758 280.312 33.6377 280.259 31.4141H282.931C282.975 32.3633 283.897 32.9873 285.128 32.9961C286.394 32.9873 287.299 32.2842 287.29 31.2559C287.299 30.2188 286.376 29.4893 284.882 29.4805H283.704V27.5293H284.882C286.139 27.5293 287.018 26.8438 287.009 25.8418C287.018 24.8662 286.271 24.1982 285.146 24.207C284.021 24.1982 283.098 24.8311 283.054 25.8066H280.522C280.566 23.6182 282.535 22.0977 285.146 22.0977C287.8 22.0977 289.566 23.6709 289.558 25.6836C289.566 27.1074 288.573 28.1182 287.149 28.373V28.4785C289.021 28.707 290.05 29.8408 290.032 31.4316C290.05 33.6113 287.984 35.1758 285.11 35.1758ZM296.88 22.2734V35H294.226V24.7871H294.155L291.237 26.6152V24.2773L294.384 22.2734H296.88Z" fill="#111111"/>
<path d="M94.3203 262V260.75L98.2422 256.797C99.4844 255.508 100.102 254.789 100.102 253.797C100.102 252.68 99.1953 251.969 98.0078 251.969C96.75 251.969 95.9531 252.766 95.9453 253.969H94.3203C94.3047 251.898 95.8828 250.531 98.0391 250.531C100.219 250.531 101.727 251.914 101.742 253.75C101.727 255.016 101.133 256.023 99.0078 258.109L96.7109 260.438V260.531H101.93V262H94.3203ZM108.352 255.625V257.062H103.336V255.625H108.352ZM114.148 250.688V262H112.414V252.406H112.352L109.648 254.172V252.531L112.461 250.688H114.148ZM116.273 259.797V258.406L121.273 250.688H123.398V258.344H124.945V259.797H123.398V262H121.773V259.797H116.273ZM118.086 258.344H121.773V252.734H121.648L118.086 258.25V258.344Z" fill="#111111"/>
<path d="M273.234 335.156C270.891 335.156 269.227 333.898 269.156 332.047H270.906C270.969 333.039 271.953 333.672 273.219 333.672C274.586 333.672 275.578 332.93 275.578 331.828C275.578 330.711 274.648 329.914 273.031 329.906H272.062V328.5H273.031C274.32 328.508 275.219 327.789 275.219 326.703C275.219 325.672 274.445 324.969 273.25 324.969C272.117 324.969 271.102 325.602 271.062 326.625H269.406C269.453 324.781 271.156 323.531 273.266 323.531C275.492 323.531 276.891 324.938 276.875 326.609C276.891 327.898 276.094 328.82 274.875 329.125V329.203C276.422 329.422 277.32 330.461 277.312 331.891C277.32 333.773 275.578 335.156 273.234 335.156ZM282.547 335.156C280.406 335.156 278.797 333.852 278.719 332.047H280.391C280.484 333.008 281.406 333.711 282.547 333.719C283.922 333.711 284.906 332.719 284.906 331.375C284.906 330 283.891 329 282.469 328.984C281.562 328.984 280.867 329.289 280.484 329.984H278.859L279.594 323.688H286V325.156H281.016L280.641 328.328H280.75C281.219 327.875 282.016 327.57 282.875 327.562C285.008 327.57 286.578 329.148 286.578 331.328C286.578 333.555 284.906 335.156 282.547 335.156ZM292.922 328.625V330.062H287.906V328.625H292.922ZM294.172 332.797V331.406L299.172 323.688H301.297V331.344H302.844V332.797H301.297V335H299.672V332.797H294.172ZM295.984 331.344H299.672V325.734H299.547L295.984 331.25V331.344ZM307.922 335.156C305.781 335.156 304.172 333.852 304.094 332.047H305.766C305.859 333.008 306.781 333.711 307.922 333.719C309.297 333.711 310.281 332.719 310.281 331.375C310.281 330 309.266 329 307.844 328.984C306.938 328.984 306.242 329.289 305.859 329.984H304.234L304.969 323.688H311.375V325.156H306.391L306.016 328.328H306.125C306.594 327.875 307.391 327.57 308.25 327.562C310.383 327.57 311.953 329.148 311.953 331.328C311.953 333.555 310.281 335.156 307.922 335.156Z" fill="#111111"/>
<path d="M193.695 147.688V159H191.961V149.406H191.898L189.195 151.172V149.531L192.008 147.688H193.695ZM200.164 159.156C198.07 159.141 195.883 157.898 195.883 153.719C195.891 149.781 197.594 147.531 200.305 147.531C202.391 147.531 203.836 148.828 204.102 150.625H202.398C202.172 149.703 201.445 149.039 200.305 149.031C198.555 149.039 197.539 150.555 197.539 153.109H197.664C198.281 152.148 199.344 151.586 200.57 151.578C202.586 151.586 204.211 153.133 204.211 155.297C204.211 157.492 202.594 159.172 200.164 159.156ZM197.742 155.344C197.75 156.602 198.758 157.711 200.148 157.719C201.516 157.711 202.539 156.648 202.539 155.328C202.539 154.031 201.555 152.977 200.195 152.984C198.812 152.977 197.758 154.086 197.742 155.344ZM210.555 152.625V154.062H205.539V152.625H210.555ZM211.602 159V157.75L215.523 153.797C216.766 152.508 217.383 151.789 217.383 150.797C217.383 149.68 216.477 148.969 215.289 148.969C214.031 148.969 213.234 149.766 213.227 150.969H211.602C211.586 148.898 213.164 147.531 215.32 147.531C217.5 147.531 219.008 148.914 219.023 150.75C219.008 152.016 218.414 153.023 216.289 155.109L213.992 157.438V157.531H219.211V159H211.602ZM224.633 159.156C222.289 159.156 220.625 157.898 220.555 156.047H222.305C222.367 157.039 223.352 157.672 224.617 157.672C225.984 157.672 226.977 156.93 226.977 155.828C226.977 154.711 226.047 153.914 224.43 153.906H223.461V152.5H224.43C225.719 152.508 226.617 151.789 226.617 150.703C226.617 149.672 225.844 148.969 224.648 148.969C223.516 148.969 222.5 149.602 222.461 150.625H220.805C220.852 148.781 222.555 147.531 224.664 147.531C226.891 147.531 228.289 148.938 228.273 150.609C228.289 151.898 227.492 152.82 226.273 153.125V153.203C227.82 153.422 228.719 154.461 228.711 155.891C228.719 157.773 226.977 159.156 224.633 159.156Z" fill="#111111"/>
<path d="M246.344 76.1562C244 76.1562 242.336 74.8984 242.266 73.0469H244.016C244.078 74.0391 245.062 74.6719 246.328 74.6719C247.695 74.6719 248.688 73.9297 248.688 72.8281C248.688 71.7109 247.758 70.9141 246.141 70.9062H245.172V69.5H246.141C247.43 69.5078 248.328 68.7891 248.328 67.7031C248.328 66.6719 247.555 65.9688 246.359 65.9688C245.227 65.9688 244.211 66.6016 244.172 67.625H242.516C242.562 65.7812 244.266 64.5312 246.375 64.5312C248.602 64.5312 250 65.9375 249.984 67.6094C250 68.8984 249.203 69.8203 247.984 70.125V70.2031C249.531 70.4219 250.43 71.4609 250.422 72.8906C250.43 74.7734 248.688 76.1562 246.344 76.1562ZM251.812 76V74.75L255.734 70.7969C256.977 69.5078 257.594 68.7891 257.594 67.7969C257.594 66.6797 256.688 65.9688 255.5 65.9688C254.242 65.9688 253.445 66.7656 253.438 67.9688H251.812C251.797 65.8984 253.375 64.5312 255.531 64.5312C257.711 64.5312 259.219 65.9141 259.234 67.75C259.219 69.0156 258.625 70.0234 256.5 72.1094L254.203 74.4375V74.5312H259.422V76H251.812ZM265.844 69.625V71.0625H260.828V69.625H265.844ZM271.219 76.1562C268.875 76.1562 267.211 74.8984 267.141 73.0469H268.891C268.953 74.0391 269.938 74.6719 271.203 74.6719C272.57 74.6719 273.562 73.9297 273.562 72.8281C273.562 71.7109 272.633 70.9141 271.016 70.9062H270.047V69.5H271.016C272.305 69.5078 273.203 68.7891 273.203 67.7031C273.203 66.6719 272.43 65.9688 271.234 65.9688C270.102 65.9688 269.086 66.6016 269.047 67.625H267.391C267.438 65.7812 269.141 64.5312 271.25 64.5312C273.477 64.5312 274.875 65.9375 274.859 67.6094C274.875 68.8984 274.078 69.8203 272.859 70.125V70.2031C274.406 70.4219 275.305 71.4609 275.297 72.8906C275.305 74.7734 273.562 76.1562 271.219 76.1562ZM280.703 76.1562C278.359 76.1562 276.695 74.8984 276.625 73.0469H278.375C278.438 74.0391 279.422 74.6719 280.688 74.6719C282.055 74.6719 283.047 73.9297 283.047 72.8281C283.047 71.7109 282.117 70.9141 280.5 70.9062H279.531V69.5H280.5C281.789 69.5078 282.688 68.7891 282.688 67.7031C282.688 66.6719 281.914 65.9688 280.719 65.9688C279.586 65.9688 278.57 66.6016 278.531 67.625H276.875C276.922 65.7812 278.625 64.5312 280.734 64.5312C282.961 64.5312 284.359 65.9375 284.344 67.6094C284.359 68.8984 283.562 69.8203 282.344 70.125V70.2031C283.891 70.4219 284.789 71.4609 284.781 72.8906C284.789 74.7734 283.047 76.1562 280.703 76.1562Z" fill="#111111"/>
<path d="M285.594 185.639V197.328H283.361V193.531H279.705C278.932 194.349 277.824 194.85 276.576 194.85C274.15 194.85 272.305 193.092 272.322 190.719C272.305 188.311 274.15 186.562 276.576 186.553C277.815 186.562 278.923 187.054 279.696 187.871H283.361V185.639H285.594ZM274.449 190.719C274.44 192.055 275.328 192.863 276.576 192.863C277.754 192.863 278.659 192.055 278.668 190.719C278.659 189.365 277.754 188.557 276.576 188.557C275.328 188.557 274.44 189.365 274.449 190.719ZM274.977 201.336V196.15H277.227V199.543H285.98V201.336H274.977ZM280.663 189.664C280.751 189.998 280.795 190.35 280.795 190.719C280.795 191.07 280.751 191.413 280.672 191.738H283.361V189.664H280.663ZM300.053 186.553V187.994C300.044 189.488 300.044 191.114 299.64 193.355H301.758V195.166H295.518V201.635H293.268V195.166H287.168V193.355H297.363C297.776 191.299 297.812 189.726 297.82 188.346H288.838V186.553H300.053ZM308.131 189.98C308.122 192.415 309.423 195.228 312.051 196.449L310.803 198.207C309.019 197.39 307.753 195.755 307.032 193.839C306.32 195.948 305.002 197.741 303.156 198.611L301.855 196.836C304.519 195.597 305.863 192.626 305.881 189.98V188.996H302.488V187.168H311.348V188.996H308.131V189.98ZM312.596 201.617V185.621H314.846V191.721H317.201V193.602H314.846V201.617H312.596ZM322.467 186.693C325.007 186.685 326.888 188.319 326.896 190.613C326.888 192.916 325.007 194.542 322.467 194.551C319.944 194.542 318.011 192.916 318.02 190.613C318.011 188.319 319.944 186.685 322.467 186.693ZM317.352 196.555C320.208 196.563 324.163 196.528 327.582 196.045L327.758 197.662C324.207 198.356 320.41 198.383 317.615 198.383L317.352 196.555ZM320.252 190.613C320.243 191.879 321.201 192.608 322.467 192.6C323.741 192.608 324.708 191.879 324.717 190.613C324.708 189.365 323.741 188.627 322.467 188.627C321.201 188.627 320.243 189.365 320.252 190.613ZM328.496 201.652V185.621H330.729V201.652H328.496ZM302.149 219.412C305.48 219.412 307.537 220.555 307.546 222.506C307.537 224.483 305.48 225.635 302.149 225.635C298.766 225.635 296.656 224.483 296.665 222.506C296.656 220.555 298.766 219.412 302.149 219.412ZM295.171 218.146V210.623H297.403V212.645H300.673V210.623H302.923V218.146H295.171ZM297.403 216.371H300.673V214.385H297.403V216.371ZM298.915 222.506C298.897 223.42 300.049 223.895 302.149 223.895C304.224 223.895 305.331 223.42 305.331 222.506C305.331 221.592 304.224 221.161 302.149 221.152C300.049 221.161 298.897 221.592 298.915 222.506ZM305.138 219.061V209.621H307.388V213.33H309.55V215.211H307.388V219.061H305.138Z" fill="#111111"/>
<path d="M97.4062 34V32.75L101.328 28.7969C102.57 27.5078 103.188 26.7891 103.188 25.7969C103.188 24.6797 102.281 23.9688 101.094 23.9688C99.8359 23.9688 99.0391 24.7656 99.0312 25.9688H97.4062C97.3906 23.8984 98.9688 22.5312 101.125 22.5312C103.305 22.5312 104.812 23.9141 104.828 25.75C104.812 27.0156 104.219 28.0234 102.094 30.1094L99.7969 32.4375V32.5312H105.016V34H97.4062ZM110.266 34.1562C108.125 34.1562 106.516 32.8516 106.438 31.0469H108.109C108.203 32.0078 109.125 32.7109 110.266 32.7188C111.641 32.7109 112.625 31.7188 112.625 30.375C112.625 29 111.609 28 110.188 27.9844C109.281 27.9844 108.586 28.2891 108.203 28.9844H106.578L107.312 22.6875H113.719V24.1562H108.734L108.359 27.3281H108.469C108.938 26.875 109.734 26.5703 110.594 26.5625C112.727 26.5703 114.297 28.1484 114.297 30.3281C114.297 32.5547 112.625 34.1562 110.266 34.1562ZM120.641 27.625V29.0625H115.625V27.625H120.641ZM121.688 34V32.75L125.609 28.7969C126.852 27.5078 127.469 26.7891 127.469 25.7969C127.469 24.6797 126.562 23.9688 125.375 23.9688C124.117 23.9688 123.32 24.7656 123.312 25.9688H121.688C121.672 23.8984 123.25 22.5312 125.406 22.5312C127.586 22.5312 129.094 23.9141 129.109 25.75C129.094 27.0156 128.5 28.0234 126.375 30.1094L124.078 32.4375V32.5312H129.297V34H121.688ZM134.656 34.1562C132.195 34.1562 130.484 32.8281 130.5 30.9844C130.484 29.5312 131.523 28.3438 132.859 28.1406V28.0781C131.695 27.8125 130.922 26.7812 130.922 25.5469C130.922 23.8047 132.492 22.5312 134.656 22.5312C136.789 22.5312 138.367 23.8047 138.375 25.5469C138.367 26.7812 137.578 27.8125 136.438 28.0781V28.1406C137.758 28.3438 138.805 29.5312 138.812 30.9844C138.805 32.8281 137.078 34.1562 134.656 34.1562ZM132.25 30.8594C132.227 31.9688 133.164 32.7344 134.656 32.7344C136.125 32.7344 137.062 31.9688 137.062 30.8594C137.062 29.6953 136.047 28.8438 134.656 28.8438C133.25 28.8438 132.227 29.6953 132.25 30.8594ZM132.594 25.7031C132.602 26.7578 133.445 27.4922 134.656 27.4844C135.836 27.4922 136.695 26.7656 136.688 25.7031C136.695 24.6484 135.867 23.9297 134.656 23.9375C133.414 23.9297 132.602 24.6484 132.594 25.7031Z" fill="#111111"/>
</svg>
