<svg width="25" height="24" viewBox="0 0 25 24" fill="none" xmlns="http://www.w3.org/2000/svg">
<path d="M12.3086 6.87339C9.47089 6.87339 7.18199 9.1623 7.18199 12C7.18199 14.8377 9.47089 17.1266 12.3086 17.1266C15.1463 17.1266 17.4352 14.8377 17.4352 12C17.4352 9.1623 15.1463 6.87339 12.3086 6.87339ZM12.3086 15.333C10.4748 15.333 8.97564 13.8383 8.97564 12C8.97564 10.1617 10.4703 8.66704 12.3086 8.66704C14.1469 8.66704 15.6416 10.1617 15.6416 12C15.6416 13.8383 14.1424 15.333 12.3086 15.333ZM18.8407 6.66369C18.8407 7.3285 18.3053 7.85945 17.6449 7.85945C16.9801 7.85945 16.4491 7.32404 16.4491 6.66369C16.4491 6.00334 16.9846 5.46793 17.6449 5.46793C18.3053 5.46793 18.8407 6.00334 18.8407 6.66369ZM22.2361 7.8773C22.1602 6.27551 21.7944 4.85666 20.6209 3.68767C19.4519 2.51868 18.0331 2.15281 16.4313 2.0725C14.7804 1.9788 9.8323 1.9788 8.18144 2.0725C6.58411 2.14835 5.16526 2.51422 3.99181 3.68321C2.81836 4.8522 2.45695 6.27105 2.37664 7.87284C2.28294 9.5237 2.28294 14.4718 2.37664 16.1227C2.45249 17.7245 2.81836 19.1433 3.99181 20.3123C5.16526 21.4813 6.57965 21.8472 8.18144 21.9275C9.8323 22.0212 14.7804 22.0212 16.4313 21.9275C18.0331 21.8516 19.4519 21.4858 20.6209 20.3123C21.7899 19.1433 22.1558 17.7245 22.2361 16.1227C22.3298 14.4718 22.3298 9.52816 22.2361 7.8773ZM20.1034 17.894C19.7553 18.7685 19.0816 19.4423 18.2026 19.7948C16.8864 20.3168 13.7631 20.1963 12.3086 20.1963C10.8541 20.1963 7.72633 20.3123 6.41456 19.7948C5.54005 19.4467 4.86632 18.773 4.51384 17.894C3.99181 16.5778 4.11228 13.4545 4.11228 12C4.11228 10.5455 3.99627 7.41773 4.51384 6.10596C4.86186 5.23145 5.53559 4.55772 6.41456 4.20524C7.73079 3.68321 10.8541 3.80368 12.3086 3.80368C13.7631 3.80368 16.8909 3.68767 18.2026 4.20524C19.0771 4.55326 19.7509 5.22699 20.1034 6.10596C20.6254 7.42219 20.5049 10.5455 20.5049 12C20.5049 13.4545 20.6254 16.5823 20.1034 17.894Z" fill="black"/>
</svg>
