<svg width="25" height="24" viewBox="0 0 25 24" fill="none" xmlns="http://www.w3.org/2000/svg">
<path d="M20.1635 2H4.44922C3.8809 2 3.33586 2.22576 2.93399 2.62763C2.53213 3.02949 2.30637 3.57454 2.30637 4.14286L2.30637 19.8571C2.30637 20.4255 2.53213 20.9705 2.93399 21.3724C3.33586 21.7742 3.8809 22 4.44922 22H10.5765V15.2004H7.76396V12H10.5765V9.56071C10.5765 6.78616 12.2282 5.25357 14.7582 5.25357C15.9698 5.25357 17.2367 5.46964 17.2367 5.46964V8.19286H15.8407C14.4653 8.19286 14.0363 9.04643 14.0363 9.92188V12H17.1068L16.6157 15.2004H14.0363V22H20.1635C20.7318 22 21.2769 21.7742 21.6787 21.3724C22.0806 20.9705 22.3064 20.4255 22.3064 19.8571V4.14286C22.3064 3.57454 22.0806 3.02949 21.6787 2.62763C21.2769 2.22576 20.7318 2 20.1635 2Z" fill="black"/>
</svg>
