<svg width="342" height="37" viewBox="0 0 342 37" fill="none" xmlns="http://www.w3.org/2000/svg">
<rect width="48.8571" height="37" fill="#111111"/>
<path d="M31.1765 10.1016V20.3945H28.989V19.6719H25.6882V18.3438H28.989V10.1016H31.1765ZM16.3523 16.4688C19.7605 16.4688 24.0281 16.4395 27.8171 16.0586L27.9343 17.4258C26.323 17.6406 24.6628 17.7871 23.032 17.8652V20.4141H20.8835V17.9531C19.3699 17.9922 17.9148 18.002 16.5867 17.9922L16.3523 16.4688ZM17.6023 13.0312C17.6023 11.4297 19.3699 10.3848 22.0554 10.375C24.6824 10.3848 26.4597 11.4297 26.4695 13.0312C26.4597 14.6719 24.6824 15.668 22.0554 15.668C19.3699 15.668 17.6023 14.6719 17.6023 13.0312ZM18.9304 22.4258V20.9414H31.1765V24.9062H21.1375V26.0391H31.6453V27.582H19.0085V23.4805H29.0281V22.4258H18.9304ZM19.6726 13.0312C19.6531 13.7734 20.571 14.2324 22.0554 14.2227C23.5105 14.2324 24.4382 13.7734 24.4382 13.0312C24.4382 12.2891 23.5105 11.8105 22.0554 11.8203C20.571 11.8105 19.6531 12.2891 19.6726 13.0312Z" fill="#F8F8FA"/>
<rect width="48.8571" height="37" transform="translate(48.8572)" fill="#111111"/>
<path d="M79.1938 10.082V17.3672H81.6743V19.1836H79.1938V27.7383H77.0063V10.082H79.1938ZM65.0142 22.8359C66.3521 22.8359 67.9048 22.8359 69.5259 22.7969V21.1465C67.6021 20.8145 66.3521 19.6133 66.3618 17.9531C66.3521 15.9609 68.1001 14.6426 70.6392 14.6328C73.1489 14.6426 74.9165 15.9609 74.936 17.9531C74.9165 19.623 73.6372 20.8242 71.7134 21.1465V22.7188C73.1978 22.6406 74.6821 22.5234 76.0688 22.3281L76.2056 23.9102C72.4165 24.6035 68.3345 24.6328 65.3267 24.6328L65.0142 22.8359ZM65.3462 13.832V12.1133H69.5259V10.1602H71.7134V12.1133H75.8735V13.832H65.3462ZM68.4126 17.9531C68.4028 18.9688 69.3013 19.5645 70.6392 19.5547C71.9575 19.5645 72.8462 18.9688 72.8462 17.9531C72.8462 16.9277 71.9575 16.3027 70.6392 16.293C69.3013 16.3027 68.4028 16.9277 68.4126 17.9531Z" fill="#F8F8FA"/>
<rect width="48.8571" height="37" transform="translate(97.7144)" fill="#111111"/>
<path d="M123.285 11.5469C123.276 13.7637 125.766 16.0195 129.535 16.5078L128.676 18.2656C125.678 17.8164 123.295 16.3418 122.143 14.3496C120.99 16.3418 118.617 17.8164 115.649 18.2656L114.789 16.5078C118.52 16.0195 121 13.7832 121 11.5469V10.6484H123.285V11.5469ZM114.086 21.5859V19.7891H130.18V21.5859H123.168V27.7383H121.02V21.5859H114.086Z" fill="#F8F8FA"/>
<rect width="48.8571" height="37" transform="translate(146.572)" fill="#111111"/>
<path d="M176.986 10.8047V16.9375H172.064V18.793H179.037V20.5508H162.943V18.793H169.877V16.9375H164.975V10.8047H176.986ZM164.721 23.7539V22.0352H177.064V27.7383H174.896V23.7539H164.721ZM167.084 15.2188H174.838V12.5039H167.084V15.2188Z" fill="#F8F8FA"/>
<rect width="48.8571" height="37" transform="translate(195.428)" fill="#111111"/>
<path d="M225.96 10.9414V12.3086C225.97 13.6855 225.97 15.248 225.531 17.3281H227.933V19.0859H211.8V17.3281H223.333C223.753 15.4141 223.792 13.9688 223.792 12.6797H213.792V10.9414H225.96ZM213.734 27.5234V21.1367H225.941V27.5234H213.734ZM215.863 25.7656H223.792V22.8359H215.863V25.7656Z" fill="#F8F8FA"/>
<rect width="48.8571" height="37" transform="translate(244.286)" fill="#111111"/>
<path d="M275.013 18.9688V20.707H269.798V23.9297H276.79V25.668H260.657V23.9297H267.611V20.707H262.63V11.3906H274.857V13.1484H264.837V15.1406H274.447V16.8594H264.837V18.9688H275.013Z" fill="#F8F8FA"/>
<rect width="48.8571" height="37" transform="translate(293.143)" fill="#111111"/>
<path d="M314.515 10.6484C317.19 10.6582 319.183 12.3086 319.202 14.6328C319.183 16.9668 317.19 18.6074 314.515 18.6172C311.819 18.6074 309.827 16.9668 309.827 14.6328C309.827 12.3086 311.819 10.6582 314.515 10.6484ZM311.937 14.6328C311.937 16 313.03 16.8594 314.515 16.8594C315.999 16.8594 317.083 16 317.093 14.6328C317.083 13.2949 315.999 12.4355 314.515 12.4453C313.03 12.4355 311.937 13.2949 311.937 14.6328ZM312.503 21.4688V19.7695H324.222V24.3789H314.671V25.8047H324.749V27.5234H312.542V22.7773H322.054V21.4688H312.503ZM322.034 19.0078V10.082H324.222V19.0078H322.034Z" fill="#F8F8FA"/>
</svg>
