<svg width="298" height="132" viewBox="0 0 298 132" fill="none" xmlns="http://www.w3.org/2000/svg">
<path fill-rule="evenodd" clip-rule="evenodd" d="M206.113 5.22788C209.713 2.75296 213.107 1.31357 217.567 0.369323C220.508 -0.25302 228.495 -0.0556738 231.444 0.712618C238.424 2.53026 244.77 6.8261 248.771 12.4417C255.011 21.1998 255.107 33.1958 249.012 42.3393C246.139 46.649 241.982 50.1449 236.993 52.4468L234.748 53.4823V61.3307H260.044L260.224 1.20417H281.758V26.2432H298V46.3278L281.935 46.505L281.756 132H260.22V80.6075L190.134 80.4394L189.946 61.4954H212.908L212.905 53.4237L211.258 52.7914C206.911 51.123 201.087 46.3311 198.49 42.2859C195.62 37.8148 194.194 32.9273 194.194 27.561C194.194 18.4343 198.42 10.5154 206.113 5.22788ZM233.025 27.4991C233.012 23.9248 231.239 21.2472 227.914 19.7801C224.555 18.2986 219.99 18.9302 217.377 21.2383C214.466 23.8091 213.685 28.2489 215.574 31.4875C217.318 34.4777 220.422 36.2291 223.904 36.1886C229.131 36.1273 233.044 32.4004 233.025 27.4991Z" fill="#111111"/>
<path d="M66.0261 66.6571C66.0261 30.7182 66.0921 1.25227 66.173 1.17683C66.2535 1.10138 71.0995 1.08063 76.9419 1.13136L87.564 1.22296V132H66.0261V66.6571Z" fill="#111111"/>
<path d="M106.363 29.0436C106.313 14.0037 106.332 1.5501 106.406 1.36891C106.495 1.15147 118.036 1.06876 140.305 1.12511L174.069 1.21077V21.3013H128.155L128.345 36.2917L173.892 36.4248L174.079 56.5535H151.118V71.3793H177.953V91.8058H102.393V71.3793H129.227V56.5628L106.454 56.3888L106.363 29.0436Z" fill="#111111"/>
<path d="M18.7133 21.3013H0V1.53364H59.3175V21.3013H40.5192L40.6908 27.4787C40.8853 34.4932 41.3348 36.3741 43.8583 40.7394C46.8969 45.9963 51.3774 50.0737 56.9342 52.6386L60.0237 54.0648V63.9849C60.0237 69.4411 59.9365 73.9866 59.8299 74.0861C59.6159 74.2858 54.3059 73.049 52.0794 72.281C48.264 70.9648 43.3353 68.0352 38.8191 64.399C36.1886 62.2812 31.933 57.6806 30.6202 55.5352C29.7064 54.0414 29.5461 53.987 29.0518 54.9998C28.5204 56.0877 25.2251 60.0541 23.1473 62.1066C17.2812 67.9008 7.9856 72.9722 1.59205 73.867L0 74.0897V53.9515L2.20675 52.9664C7.14316 50.763 11.5824 46.9204 14.513 42.3149C17.9478 36.9171 18.6981 34.086 18.7073 26.4903L18.7133 21.3013Z" fill="#111111"/>
</svg>
