<svg width="174" height="100" viewBox="0 0 174 100" fill="none" xmlns="http://www.w3.org/2000/svg">
<path fill-rule="evenodd" clip-rule="evenodd" d="M0.576159 6.31984V0H16.8429L16.5675 1.43633C16.326 2.698 16.4931 2.87266 17.941 2.87266C19.3152 2.87266 19.5894 2.63365 19.5894 1.43633C19.5894 0.0781361 19.7623 0 22.7583 0H25.9272V14.3633C25.9272 26.5227 25.7993 28.7266 25.0923 28.7266C24.3635 28.7266 24.3635 28.9793 25.0923 30.719C29.035 40.1287 17.7428 47.6757 10.803 40.2695C8.86939 38.2057 8.6424 37.6444 8.6447 34.9252C8.64816 29.6194 12.1702 25.8602 17.1407 25.8562L19.5894 25.8539V17.2359H17.2848C15.5609 17.2359 14.9801 17.0056 14.9801 16.3207C14.9801 15.7077 14.0214 16.265 12.0717 18.0139C9.29634 20.5016 4.12301 22.9812 1.7066 22.9812C0.722524 22.9812 0.576159 22.5785 0.576159 19.8673V16.7539L3.37396 15.8272C7.38115 14.5 9.7947 11.5877 9.7947 8.08136V6.31984H0.576159ZM17.8609 11.4906C19.2051 11.4906 19.5894 11.2355 19.5894 10.3416C19.5894 9.44759 19.2051 9.1925 17.8609 9.1925C16.5168 9.1925 16.1325 9.44759 16.1325 10.3416C16.1325 11.2355 16.5168 11.4906 17.8609 11.4906ZM19.2685 36.0673C20.4231 34.4242 20.4006 34.1317 19.0132 32.7483C17.6259 31.3648 17.3326 31.3424 15.6848 32.4938C14.1297 33.5796 14.0404 35.1148 15.4578 36.3937C16.9016 37.6967 18.2026 37.5858 19.2685 36.0673Z" fill="#111111"/>
<path d="M29.9603 6.31984V0H45.6859L45.372 6.80303C45.1294 12.0491 44.7917 14.1197 43.897 15.8519C41.7531 20.0023 36.8799 23.538 32.0633 24.4394L29.8986 24.8445L30.2483 18.1885L32.606 17.4071C36.4277 16.1409 38.1953 13.8462 38.4909 9.76761L38.7409 6.31984H29.9603Z" fill="#111111"/>
<path d="M48.9735 41.3662V0H55.8874V41.3662H48.9735Z" fill="#111111"/>
<path d="M61.0728 17.2359V0H81.2384V6.31984H67.4106V10.9161H81.2384V17.2359H74.3245V22.4067H82.3907V28.7266H59.9205V22.4067H67.9868V17.2359H61.0728Z" fill="#111111"/>
<path fill-rule="evenodd" clip-rule="evenodd" d="M85.8477 22.4067V0H101.98V22.4067H85.8477ZM93.9139 15.7996C95.3203 15.7996 95.3584 15.6881 95.5214 11.0597L95.6891 6.31984H92.1387L92.3064 11.0597C92.4695 15.6881 92.5075 15.7996 93.9139 15.7996Z" fill="#111111"/>
<path d="M104.861 41.3662V0H111.775V41.3662H104.861Z" fill="#111111"/>
<path d="M123.298 2.9956C123.298 2.34753 123.455 1.40875 123.648 0.908909C123.912 0.222344 124.828 0 127.393 0H130.788V1.78047C130.788 4.51352 132.313 7.11328 134.821 8.65589C136.997 9.99397 137.095 10.1836 137.11 13.0706C137.124 15.6002 136.958 16.0869 136.086 16.0869C134.373 16.0869 129.064 13.1803 128.101 11.7147L127.203 10.3485L126.113 11.7314C124.91 13.2556 119.636 16.0869 118 16.0869C117.13 16.0869 116.96 15.5939 116.96 13.0574C116.96 10.1813 117.063 9.97329 118.991 8.93798C121.204 7.74928 123.298 4.86053 123.298 2.9956Z" fill="#111111"/>
<path d="M142.887 6.31984V0H160.748V14.9378H154.411V6.31984H142.887Z" fill="#111111"/>
<path d="M162.477 17.1199V0H168.815V6.31984H174V12.6397H168.815V33.3228H162.477V22.9812H141.735V20.1086C141.735 17.5324 141.869 17.229 143.031 17.1699C143.744 17.1331 144.717 17.0688 145.192 17.0262C145.829 16.9688 146.102 16.0783 146.229 13.6451L146.402 10.3416H152.048L152.394 16.9487L162.477 17.1199Z" fill="#111111"/>
<path d="M119.841 22.9812H115.808V17.2359H138.278V22.9812H134.245C131.044 22.9812 130.212 23.1593 130.212 23.843C130.212 24.5049 130.948 24.7048 133.381 24.7048H136.55V36.1955H130.212C126.371 36.1955 123.874 36.4218 123.874 36.77C123.874 37.1182 126.371 37.3445 130.212 37.3445H136.55V43.0898H117.536V32.1737H123.874C129.124 32.1737 130.212 32.0255 130.212 31.3119C130.212 30.5984 129.124 30.4502 123.874 30.4502H117.536V24.7048H120.705C123.138 24.7048 123.874 24.5049 123.874 23.843C123.874 23.1593 123.042 22.9812 119.841 22.9812Z" fill="#111111"/>
<path d="M152.106 43.0898V25.8539H158.401L158.732 36.4827L169.391 36.8131V43.0898H152.106Z" fill="#111111"/>
<path d="M19.5894 60.4217C19.5894 58.578 19.6972 56.9625 19.8291 56.8309C19.961 56.6993 21.387 56.6809 22.998 56.7907L25.9272 56.9895V90.2014H19.5894V70.0928L17.7169 70.1112C16.0368 70.1273 15.9481 70.2077 16.8526 70.8925C17.5826 71.4452 17.8609 72.4702 17.8609 74.6086C17.8609 77.0986 17.6939 77.5617 16.795 77.5617C15.4399 77.5617 11.2138 74.7494 10.024 73.0562L9.11656 71.7641L6.57055 74.1042C4.25093 76.2357 1.93823 77.5617 0.538742 77.5617C0.242597 77.5617 0 76.1886 0 74.5098C0 71.7865 0.185547 71.3211 1.72447 70.1864C3.73238 68.7065 4.90025 66.9955 5.41591 64.7784C5.77947 63.2162 5.75124 63.1984 2.89177 63.1984H0V56.8786H17.9214L17.5728 62.9112L14.771 63.0887C11.987 63.2656 11.9714 63.2777 12.3177 65.0048C12.509 65.9602 13.2516 67.5608 13.9672 68.5611L15.2682 70.3801L15.6139 63.773H19.5894V60.4217Z" fill="#111111"/>
<path d="M48.9735 56.955L50.5579 56.7729C51.4297 56.6729 52.9882 56.6844 54.0224 56.7987L55.9018 57.0061L55.5993 97.9576L48.9735 98.3023V56.955Z" fill="#111111"/>
<path d="M78.8018 68.2641C78.9562 57.0596 78.9695 56.9538 80.2422 56.7734C80.9486 56.6735 82.3694 56.6844 83.399 56.7976L85.2715 57.0044V91.925H80.0861C75.8611 91.925 74.9007 92.0847 74.9007 92.7868C74.9007 93.4894 75.864 93.6486 80.1161 93.6486H85.332L84.9834 99.6811L68.5629 100V87.3287H73.7483C76.821 87.3287 78.9338 87.0949 78.9338 86.7542C78.9338 86.4135 76.821 86.1797 73.7483 86.1797H68.5629V79.9046L78.6457 79.5726L78.8018 68.2641Z" fill="#111111"/>
<path d="M129.636 67.2018C129.636 63.4392 132.723 58.7257 136.262 57.0871C139.046 55.7979 144.596 56.3322 147.36 58.1563C152.366 61.4605 153.518 68.3571 149.997 73.9513C149.045 75.4629 146.795 78.9624 144.997 81.7271L141.728 86.7542H152.106V93.074H129.682L137.529 81.1537C141.844 74.5971 145.494 68.7783 145.64 68.2227C146.002 66.8427 144.687 63.8517 143.423 63.1766C140.56 61.6489 136.852 63.5954 136.219 66.9576C135.848 68.9311 135.825 68.9437 132.741 68.9437C129.667 68.9437 129.636 68.9259 129.636 67.2018Z" fill="#111111"/>
<path d="M31.0083 71.7612C33.3855 70.4134 34.6629 67.1908 35.008 61.673L35.3082 56.8786H42.0596V61.4932C42.0596 66.9909 42.9215 69.354 45.7453 71.6009C47.6552 73.1206 47.8212 73.494 47.8212 76.269C47.8212 78.3178 47.5873 79.2853 47.0923 79.2853C45.8818 79.2853 41.8844 76.9797 40.0073 75.1981L38.2426 73.5239L36.8482 75.0039C35.2736 76.6752 32.6106 78.3885 30.6805 78.971C29.4394 79.3462 29.3841 79.2204 29.3876 76.0202C29.391 72.9603 29.5281 72.6006 31.0083 71.7612Z" fill="#111111"/>
<path d="M61.0089 69.6389C63.5238 67.2471 64.5217 64.4825 64.5264 59.8949L64.5298 56.8786H71.4437V60.1155C71.4437 64.837 72.4601 67.589 75.005 69.7613C77.0261 71.4866 77.2053 71.8802 77.2053 74.6006C77.2053 76.4988 76.9605 77.5617 76.5231 77.5617C75.1018 77.5617 70.8387 75.1079 69.4968 73.5182L68.0997 71.8618L65.8971 73.9335C63.8592 75.8496 60.7761 77.5617 59.3628 77.5617C59.0327 77.5617 58.7682 76.2736 58.7682 74.6661C58.7682 72.0496 58.9843 71.5647 61.0089 69.6389Z" fill="#111111"/>
<path d="M102.556 61.6954L105.847 59.287C108.73 57.1756 109.513 56.8786 112.185 56.8786H115.232V93.074H108.894V79.2853C108.894 71.7015 108.734 65.4966 108.539 65.4966C108.344 65.4966 106.918 66.4233 105.37 67.5562L102.556 69.6159V61.6954Z" fill="#111111"/>
<path d="M10.0828 99.6811L9.7653 81.5834H16.7086V93.074H26.5609L26.2152 99.6811H10.0828Z" fill="#111111"/>
<path d="M119.265 89.1483C119.265 87.3046 119.45 85.6126 119.676 85.3874C119.902 85.1622 121.262 85.0542 122.701 85.1478L125.315 85.3179L125.496 88.1888C125.733 91.9428 125.239 94.4093 123.924 96.0288C122.968 97.2049 122.692 97.267 121.278 96.6241C119.803 95.9542 119.76 95.8387 120.634 94.8758C121.901 93.4802 121.812 92.4995 120.417 92.4995C119.397 92.4995 119.265 92.1163 119.265 89.1483Z" fill="#111111"/>
</svg>
