<svg width="61" height="232" viewBox="0 0 61 232" fill="none" xmlns="http://www.w3.org/2000/svg">
<path d="M33.5609 5.77778L55.946 5.77778L55.946 -2.20919e-07L60.889 -4.85305e-09L60.889 8.1747C60.889 14.054 60.9521 15.8904 60.1278 16.4514C59.6964 16.745 59.022 16.6892 57.9681 16.6809L56.1706 16.6667L55.9033 11.1111L45.1764 11.1111C39.2768 11.1111 34.1805 11.0093 33.8516 10.8849C33.426 10.7235 33.2976 9.95291 33.4072 8.21821L33.5609 5.77778Z" fill="#111111"/>
<path d="M45.1612 24.8889L33.4777 24.8889L33.4777 19.5556L60.889 19.5556L60.889 24.8889L50.1042 24.8889L50.1042 31.5556L60.889 31.5556L60.889 36.4444L33.4777 36.4444L33.4777 31.5556L45.1612 31.5556L45.1612 24.8889Z" fill="#111111"/>
<path d="M46.8836 40.8889C54.2572 40.8889 60.4248 41.0222 60.5893 41.1853C60.7541 41.348 60.889 44.648 60.889 48.5187L60.889 55.5556L55.946 55.5556L55.946 46.2222L50.1042 46.2222L50.1042 55.1578L45.3859 54.8889L45.1284 46.1853L38.2968 46.4444L38.2548 55.5556L33.4777 55.5556L33.4777 40.8889L46.8836 40.8889Z" fill="#111111"/>
<path d="M47.0579 67.4444C54.5273 67.5053 60.6949 67.5556 60.7636 67.5556C60.8328 67.5556 60.889 72.6556 60.889 78.8889L60.889 90.2222L47.6327 90.2222C40.3417 90.2222 34.225 90.2725 34.0394 90.3333C33.8538 90.3942 33.6417 89.2943 33.5676 87.8889L33.4327 85.3333L55.946 85.3333L55.946 81.3333L33.4777 81.3333L33.4777 76.4444L55.946 76.4444L55.946 72.4444L33.4777 72.4444L33.4773 67.3333L47.0579 67.4444Z" fill="#111111"/>
<path fill-rule="evenodd" clip-rule="evenodd" d="M41.2396 95.7911C49.4014 97.82 59.5939 100.428 60.3479 100.681C60.7659 100.821 60.8926 101.718 60.7973 103.857L60.6643 106.837L52.8004 108.962C48.4753 110.131 42.638 111.708 39.8282 112.467C37.0188 113.225 34.4407 113.952 34.0988 114.081C33.6102 114.267 33.4777 113.711 33.4777 111.471L33.4777 108.625L41.5663 106.93L41.5663 100.989L33.4777 99.0115L33.4777 96.3471C33.4777 94.1436 33.5959 93.7275 34.1621 93.9423C34.5387 94.0853 37.7233 94.9173 41.2396 95.7911ZM46.5093 105.631L49.9919 104.778C51.9075 104.309 53.5347 103.866 53.6079 103.794C53.745 103.659 47.617 102.222 46.9034 102.222C46.6868 102.222 46.5093 102.989 46.5093 103.927L46.5093 105.631Z" fill="#111111"/>
<path fill-rule="evenodd" clip-rule="evenodd" d="M33.4777 122.222L33.4777 117.333L61 117.333L60.8019 122.556C60.5929 128.066 60.1309 129.588 58.1231 131.39C55.7783 133.493 51.796 133.764 48.8923 132.017C47.1617 130.976 45.7274 128.053 45.34 124.778L45.0377 122.222L33.4777 122.222ZM51.593 127.651C52.6741 128.331 54.5439 128.004 55.2462 127.012C55.631 126.469 55.946 125.169 55.946 124.123L55.946 122.222L50.1042 122.222L50.1042 123.527C50.1042 125.099 50.8587 127.189 51.593 127.651Z" fill="#111111"/>
<path fill-rule="evenodd" clip-rule="evenodd" d="M44.9365 147.583C50.6209 149.054 56.5355 150.579 58.0804 150.971L60.889 151.683L60.889 157.66L58.0804 158.419C47.7468 161.209 44.7855 162.015 39.9018 163.369C36.8852 164.205 34.2062 164.889 33.9477 164.889C33.6741 164.889 33.4777 163.796 33.4777 162.272L33.4777 159.655L41.5663 157.678L41.5663 151.736L33.5491 150.056L33.4009 147.472C33.2826 145.402 33.3874 144.889 33.9271 144.897C34.2978 144.903 39.2521 146.111 44.9365 147.583ZM47.5204 156.277C48.0762 156.128 49.6939 155.765 51.1153 155.47C52.5367 155.175 53.6991 154.819 53.6991 154.679C53.6991 154.539 52.4121 154.184 50.8394 153.888C49.2666 153.593 47.6488 153.226 47.2444 153.073C46.6351 152.842 46.5093 153.116 46.5093 154.671C46.5093 156.401 46.5884 156.527 47.5204 156.277Z" fill="#111111"/>
<path d="M33.4777 173.333L33.4777 168L60.889 168L60.889 185.778L33.4777 185.778L33.4777 180.889L55.946 180.889L55.946 173.333L33.4777 173.333Z" fill="#111111"/>
<path fill-rule="evenodd" clip-rule="evenodd" d="M35.1628 190.508C37.4393 190.136 60.2117 190.145 60.5892 190.519C60.7541 190.681 60.889 192.659 60.889 194.912C60.889 200.481 60.0123 203.055 57.2909 205.472C54.4913 207.959 51.7017 208.894 47.0881 208.891C42.5207 208.888 39.2116 207.766 36.7208 205.375C34.3018 203.053 33.4777 200.44 33.4777 195.09L33.4777 190.783L35.1628 190.508ZM52.0346 202.988C53.7242 202.223 54.7627 201.418 55.24 200.506C55.6282 199.763 55.946 198.341 55.946 197.346L55.946 195.537L38.196 195.778L38.2985 197.447C38.538 201.359 41.1753 203.426 46.4895 203.867C49.1273 204.085 49.871 203.967 52.0346 202.988Z" fill="#111111"/>
<path fill-rule="evenodd" clip-rule="evenodd" d="M20.6056 174.161C24.8638 175.643 27.3345 177.898 28.1123 181.011C28.6348 183.104 28.199 185.287 26.8055 187.556C24.0693 192.01 16.0144 194.062 8.60267 192.192C5.29979 191.36 2.99504 189.953 1.27218 187.719C0.170379 186.29 3.32803e-06 185.674 3.43996e-06 183.113C3.61917e-06 179.013 1.32429 177.059 5.46918 175.04C8.21397 173.704 8.95494 173.548 13.2387 173.404C17.1541 173.272 18.4302 173.404 20.6056 174.161ZM13.9303 187.778C18.4366 187.778 21.7686 186.821 22.9185 185.197C23.8568 183.872 23.758 182.107 22.6683 180.736C20.2547 177.702 9.91522 177.296 5.95409 180.081C4.93721 180.796 4.71834 181.284 4.71834 182.842C4.71834 186.225 7.61584 187.778 13.9303 187.778Z" fill="#111111"/>
<path d="M25.3577 -1.55798e-06C27.3133 -1.47249e-06 27.5901 0.117295 27.7168 0.999999C27.7959 1.5498 27.8157 4.89996 27.7609 8.44444C27.7061 11.9889 27.6553 15.3391 27.6486 15.8889C27.6373 16.7911 27.4158 16.8889 25.3891 16.8889C23.167 16.8889 23.1414 16.8729 23.0771 15.4444C23.0412 14.6502 23.0565 13.3533 23.1114 12.5631L23.2105 11.1266L0.449375 10.8889L0.180153 5.79329L11.5491 5.67426C21.2694 5.57291 22.9266 5.45909 22.9783 4.88889C23.0115 4.52224 23.0619 3.27203 23.0906 2.11111L23.1423 -1.65481e-06L25.3577 -1.55798e-06Z" fill="#111111"/>
<path d="M13.7003 19.66C20.9885 19.5952 27.2275 19.6467 27.565 19.7746C27.9087 19.9048 28.0592 20.3151 27.9074 20.7067C27.7582 21.0916 27.636 22.1898 27.636 23.1476L27.636 24.8889L16.8512 24.8889L16.8512 31.5556L27.636 31.5556L27.636 36.4444L0.224692 36.4444L0.224692 31.5556L11.8345 31.5556L11.9837 28.4054C12.0659 26.6728 12.0484 25.1728 11.9455 25.072C11.8426 24.9716 9.15308 24.8889 5.96891 24.8889L0.179713 24.8889L0.449374 19.7778L13.7003 19.66Z" fill="#111111"/>
<path d="M13.7003 40.9934C20.9885 40.9285 27.156 40.9529 27.4059 41.048C27.6889 41.1556 27.844 43.8893 27.8165 48.2773L27.7725 55.3333L23.0488 55.3333L22.9176 46.4444L17.0759 46.4444L16.8773 54.1111C16.8539 55.0115 16.627 55.1111 14.6044 55.1111L12.3575 55.1111L12.3575 46.2222L5.16771 46.2222L5.16771 55.5556L0.202199 55.5556L0.449373 41.1111L13.7003 40.9934Z" fill="#111111"/>
<path d="M25.3689 67.2676C27.2711 67.2769 27.6149 67.412 27.7281 68.1947C27.8009 68.6987 27.8328 72.4111 27.7991 76.4444L27.7375 83.7778L22.9764 83.7778L23.2057 78.2222L0.22469 78.2222L0.22469 72.8889L23.1423 72.8889L23.1423 67.2569L25.3689 67.2676Z" fill="#111111"/>
<path d="M13.9303 87.0733C21.3448 87.0835 27.5124 87.0965 27.636 87.1013C27.7595 87.1062 27.8121 90.1605 27.7524 93.8885C27.693 97.6164 27.6427 100.827 27.64 101.023C27.6377 101.22 26.597 101.32 25.3271 101.245L23.0188 101.111L23.1935 92L16.7788 92L17.0476 100.667L12.3575 100.936L12.3575 92L5.16771 92L5.1677 101.333L0.202197 101.333L0.449371 87.0542L13.9303 87.0733Z" fill="#111111"/>
<path fill-rule="evenodd" clip-rule="evenodd" d="M0.44937 110.444L0.17971 105.333L27.9348 105.333L27.7955 107.667C27.7187 108.95 27.5825 111.525 27.4927 113.389C27.2904 117.569 26.1324 119.708 23.4097 120.932C19.8952 122.51 16.3592 121.646 14.2287 118.686L13.0774 117.087L10.2752 118.945C7.26171 120.944 3.12087 122.667 1.33098 122.667C0.290293 122.667 0.224688 122.522 0.224688 120.24L0.224688 117.812L1.95248 117.352C5.76759 116.336 13.0689 111.666 12.1944 110.802C12.0524 110.661 9.35176 110.523 6.19271 110.495L0.44937 110.444ZM17.3006 112.313C17.3006 115.956 19.44 117.721 21.591 115.852C22.7316 114.861 23.6564 111.007 22.8583 110.571C22.6439 110.454 21.3058 110.313 19.8844 110.258L17.3006 110.158L17.3006 112.313Z" fill="#111111"/>
<path fill-rule="evenodd" clip-rule="evenodd" d="M13.7003 126.327C20.9885 126.262 27.156 126.286 27.4059 126.38C27.9608 126.591 27.7644 135.059 27.1502 137.404C25.5954 143.342 16.6876 144.4 13.7622 138.994L13.1714 137.901L10.5763 139.616C7.90119 141.382 2.68138 143.556 1.1131 143.556C0.339334 143.556 0.224687 143.25 0.224687 141.192L0.224687 138.829L2.62971 138.079C6.14597 136.983 12.7323 132.515 12.167 131.61C12.0241 131.382 10.2397 131.196 8.20048 131.198C6.16166 131.2 3.52263 131.181 2.3358 131.156L0.177515 131.111L0.44937 126.444L13.7003 126.327ZM18.0003 136.345C18.8845 137.595 20.9184 137.647 22.0148 136.449C22.4728 135.948 22.9181 134.598 23.0403 133.338L23.2564 131.111L17.3006 131.111L17.3006 133.234C17.3006 134.437 17.6039 135.786 18.0003 136.345Z" fill="#111111"/>
<path d="M1.07306 146.996C2.16367 146.713 27.1214 146.574 27.5686 146.848C27.7447 146.955 27.8503 147.808 27.8032 148.744C27.7564 149.679 27.6998 150.797 27.6769 151.229C27.6387 151.963 26.7638 152.005 14.0427 151.896L0.449369 151.778L0.315526 149.502C0.200441 147.545 0.306859 147.194 1.07306 146.996Z" fill="#111111"/>
<path d="M23.185 155.111L25.6835 155.111C27.7766 155.111 28.1374 155.225 27.9087 155.814C27.7586 156.201 27.636 159.901 27.636 164.036L27.636 171.556L23.1423 171.556L23.1423 165.778L0.224686 165.778L0.224686 160.904L22.9176 160.667L23.185 155.111Z" fill="#111111"/>
<path fill-rule="evenodd" clip-rule="evenodd" d="M0.224685 200.889L0.224685 196L27.7285 196L27.5699 201.444C27.3915 207.562 26.8001 209.174 24.0625 210.999C21.0567 213.002 15.9673 212.011 14.1254 209.064C13.6072 208.234 13.0999 207.556 12.9988 207.556C12.8976 207.556 11.9532 208.206 10.9003 209.001C8.65478 210.696 4.30221 212.694 1.9098 213.127L0.224684 213.433L0.224684 208.591L3.55543 207.334C7.06039 206.011 12.3575 202.489 12.3575 201.482C12.3575 201.017 11.0476 200.889 6.29111 200.889L0.224685 200.889ZM18.0869 206.333C19.0054 207.352 21.0087 207.326 21.9632 206.283C22.3797 205.828 22.8449 204.418 22.9967 203.15L23.2726 200.845L17.0759 201.111L17.2309 203.333C17.3158 204.556 17.701 205.906 18.0869 206.333Z" fill="#111111"/>
<path d="M12.1329 221.111L12.3985 215.111L27.636 215.111L27.636 220L16.8512 220L16.8516 226.889L27.4113 226.889L27.6809 232L12.3575 232L12.3575 226.222L0.224683 226.222L0.224684 221.359L12.1329 221.111Z" fill="#111111"/>
</svg>
