<svg width="125" height="51" viewBox="0 0 125 51" fill="none" xmlns="http://www.w3.org/2000/svg">
<path d="M0.166683 6.87505C-0.420619 5.91774 0.613134 3.25251 2.18552 1.6691C3.78032 0.0631406 3.97849 -0.00271516 6.64432 0.191507C9.84636 0.424702 11.4627 1.58686 12.3498 4.29494C13.1391 6.70243 12.633 8.34689 9.716 12.8532L7.11178 16.8763L12.5513 17.1634L12.8478 20.7696L6.56027 20.7696C1.58053 20.7696 0.322835 20.6388 0.51288 20.1411C0.644172 19.7954 2.48634 16.8523 4.6059 13.6009C9.10911 6.69186 9.34689 6.11824 8.22288 4.86756C6.68156 3.1525 3.71777 4.14685 3.71777 6.37884C3.71777 7.11547 3.37924 7.30634 2.07475 7.30634C1.17086 7.30634 0.312314 7.11212 0.166683 6.87505Z" fill="#111111"/>
<path fill-rule="evenodd" clip-rule="evenodd" d="M14.2225 10.6722C14.2225 6.51684 15.3074 3.38569 17.383 1.55083C20.8339 -1.5005 25.636 0.284304 27.3134 5.24263C28.51 8.77865 28.3132 13.8379 26.8655 16.7638C25.2511 20.0253 24.2102 20.8715 21.509 21.1144C19.516 21.2937 19.0213 21.1374 17.4914 19.8454C15.3117 18.0043 14.2225 14.9472 14.2225 10.6722ZM20.1911 8.74883C21.3467 6.50099 22.3026 4.49978 22.316 4.30116C22.3289 4.10259 21.7993 3.94054 21.139 3.94054C19.2911 3.94054 18.041 6.38747 18.0682 9.95091L18.0902 12.8359L20.1911 8.74883ZM21.6327 17.2043C22.4645 16.9937 23.1162 16.32 23.5885 15.1819C23.9972 14.1971 24.2364 12.4238 24.1538 10.9915L24.0111 8.50842L21.9707 12.7849C20.8487 15.1367 20.0331 17.1643 20.1582 17.2903C20.2833 17.4163 20.9465 17.3774 21.6327 17.2043Z" fill="#111111"/>
<path d="M29.5022 5.83216C29.5022 3.9646 30.206 2.54805 31.8151 1.17817C32.7778 0.358846 33.6893 0.0982403 35.5973 0.0963034C37.779 0.0943664 38.3391 0.304025 39.8365 1.68641C41.2742 3.01304 41.5975 3.67564 41.7722 5.65326C41.9699 7.89394 41.82 8.2781 39.1021 12.4753L36.2224 16.9229H41.9169V20.7696H35.7095C32.2955 20.7696 29.5022 20.648 29.5022 20.4993C29.5022 20.3508 31.436 17.2879 33.7996 13.6927C36.1632 10.0976 38.097 6.79863 38.097 6.36153C38.097 3.54869 34.5454 3.08177 33.3221 5.73308C32.7324 7.01164 32.3318 7.28762 31.054 7.29578C29.6383 7.3054 29.5022 7.17704 29.5022 5.83216Z" fill="#111111"/>
<path d="M43.6454 6.91931C43.081 5.99944 44.3387 2.66157 45.7192 1.41618C47.8282 -0.487419 51.3029 -0.469634 53.4425 1.45562C54.7232 2.60816 54.9906 3.2352 55.1801 5.53692C55.3477 7.57658 55.2006 8.56852 54.5914 9.50518C53.8417 10.6572 53.8389 10.8198 54.5532 11.6151C56.5863 13.8769 55.5898 18.5683 52.6986 20.3436C49.6623 22.2083 45.2579 21.073 44.0279 18.1087C42.8767 15.3334 43.0992 14.5188 45.0082 14.5188C46.3685 14.5188 46.8007 14.7785 47.408 15.9613C48.2494 17.599 49.7019 17.8557 51.0709 16.608C52.903 14.9386 51.4347 12.1146 48.734 12.1146C47.8096 12.1146 47.6468 11.8622 47.6468 10.4317C47.6468 8.99453 47.8077 8.74883 48.7493 8.74883C50.611 8.74883 51.5603 7.7016 51.385 5.84272C51.2389 4.29781 51.1114 4.18095 49.5744 4.18095C48.119 4.18095 47.8679 4.36801 47.4763 5.74365C47.09 7.10009 46.8231 7.30634 45.457 7.30634C44.5913 7.30634 43.7762 7.13231 43.6454 6.91931Z" fill="#111111"/>
<path fill-rule="evenodd" clip-rule="evenodd" d="M62.5683 5.74271C62.7655 3.67752 63.0825 3.02119 64.5294 1.68641C65.9785 0.348751 66.6188 0.0943664 68.5297 0.0958338C71.4443 0.0982403 73.732 1.47435 74.7004 3.80783C75.6912 6.19519 75.3832 7.61649 72.3654 14.5818L69.7889 20.5292L67.7901 20.6768C66.691 20.7585 65.7914 20.6864 65.7914 20.5171C65.7914 20.3479 66.4522 18.6929 67.2601 16.8398C68.5899 13.7894 68.7122 12.8465 67.7811 12.8301C66.532 12.8085 64.1989 11.2462 63.3504 9.86339C62.543 8.54833 62.3816 7.69825 62.5683 5.74271ZM70.5662 8.268C71.7132 7.11306 71.7929 5.72539 70.7711 4.69594C69.883 3.80207 67.6531 3.70065 66.8418 4.51757C65.8921 5.47394 66.1609 7.6564 67.3303 8.48101C68.7327 9.47055 69.4169 9.42535 70.5662 8.268Z" fill="#111111"/>
<path d="M82.6228 1.83884C83.4761 1.18492 84.9267 0.573788 85.8459 0.480462C86.7651 0.387196 87.6785 0.383381 87.8752 0.471365C88.0719 0.559349 88.2333 5.16233 88.2333 10.7006V20.7696H84.4134V5.31764L83.0268 6.31199C82.2638 6.85874 81.5117 7.30634 81.3556 7.30634C81.199 7.30634 81.071 6.34374 81.071 5.16714C81.071 3.3179 81.2816 2.86636 82.6228 1.83884Z" fill="#111111"/>
<path fill-rule="evenodd" clip-rule="evenodd" d="M90.4073 7.47656C90.0039 5.55852 91.1708 2.63269 92.9132 1.19308C94.5071 -0.123392 98.1961 -0.283043 100.151 0.880528C101.926 1.93598 103.168 4.16992 103.157 6.28939C103.15 7.85115 101.216 13.1624 98.6283 18.7261C97.7492 20.6162 97.5382 20.7696 95.8206 20.7696C94.7988 20.7696 93.9632 20.583 93.9632 20.3551C93.9632 20.1267 94.5844 18.4231 95.3436 16.5686L96.7245 13.1975L94.879 12.6402C92.802 12.0137 90.8992 9.81632 90.4073 7.47656ZM98.2797 8.4911C99.3244 7.5386 99.5198 5.40081 98.6426 4.51757C97.6222 3.48999 95.4874 3.83383 94.6212 5.16427C93.9384 6.21391 93.9155 6.55822 94.4593 7.58139C95.3031 9.16909 97.0731 9.59028 98.2797 8.4911Z" fill="#111111"/>
<path d="M109.243 11.2333C109.243 10.4837 109.386 9.7264 109.561 9.55037C109.736 9.37393 113.281 9.22966 117.44 9.22966H125V12.5955L109.243 12.5955V11.2333Z" fill="#111111"/>
<path d="M57.1965 18.4457C57.1965 17.4317 57.3498 16.4479 57.5375 16.2589C57.7251 16.0705 58.5307 15.9801 59.3281 16.0589C60.6655 16.1907 60.7892 16.3594 60.9243 18.2452L61.0714 20.2887H59.1337C57.2061 20.2887 57.1965 20.2796 57.1965 18.4457Z" fill="#111111"/>
<path d="M75.3411 18.4746C75.3411 17.4446 75.4844 16.458 75.6596 16.282C75.8344 16.1056 76.5826 15.9613 77.3218 15.9613C78.345 15.9613 78.7346 16.2387 78.9557 17.1254C79.4953 19.2915 79.0517 20.0368 77.1279 20.1974C75.3445 20.3464 75.3411 20.3436 75.3411 18.4746Z" fill="#111111"/>
<path d="M103.513 18.4457C103.513 17.4317 103.624 16.4907 103.76 16.3537C103.896 16.2166 104.594 16.1267 105.312 16.1532C106.496 16.1974 106.63 16.3897 106.763 18.2452L106.91 20.2887H105.211C103.561 20.2887 103.513 20.2373 103.513 18.4457Z" fill="#111111"/>
<path d="M0.21445 35.2449C0.311848 33.2058 1.62398 31.3594 3.75167 30.2669C5.66355 29.2851 5.79009 29.275 8.10398 29.9221C10.2131 30.5121 12.1612 32.6913 12.5776 34.9262C12.9801 37.087 12.7557 37.6722 9.69688 42.43L7.08456 46.494L12.7901 46.7801L12.7901 50.581H6.58271C2.84157 50.581 0.375352 50.3935 0.375352 50.1094C0.375352 49.8497 2.09576 47.0436 4.19862 43.8739C8.91714 36.7606 9.23134 36.1037 8.54233 34.8069C7.36291 32.5879 4.38149 33.1755 3.87486 35.7267C3.61271 37.0457 3.44225 37.1558 1.86273 37.0226C0.228759 36.8851 0.140891 36.7903 0.21445 35.2449Z" fill="#111111"/>
<path fill-rule="evenodd" clip-rule="evenodd" d="M15.9114 32.9952C16.9337 31.3257 17.85 30.4554 19.0151 30.0472C21.4298 29.2014 23.2953 29.725 25.2912 31.8085C27.5029 34.1174 28.2354 36.7725 27.9661 41.5015C27.8023 44.3802 27.4771 45.6458 26.4467 47.4157C23.493 52.4918 18.286 52.1082 15.3017 46.5945C14.6637 45.4159 14.4656 43.9076 14.4637 40.2076C14.4613 35.6498 14.5472 35.2234 15.9114 32.9952ZM19.569 39.7624C20.3836 38.1756 21.3342 36.195 21.6819 35.3613C22.1737 34.1813 22.1847 33.8011 21.7301 33.6467C19.6086 32.9269 18.031 35.5917 18.0654 39.835L18.0883 42.6473L19.569 39.7624ZM20.4858 46.9493C21.1609 47.6835 23.4467 45.6333 23.895 43.8917C24.1171 43.0286 24.234 41.3255 24.1548 40.1062L24.0111 37.8895L22.039 42.1915C20.8792 44.7216 20.2394 46.6815 20.4858 46.9493Z" fill="#111111"/>
<path d="M29.5094 34.6751C29.9238 32.3907 31.5029 30.5329 33.5346 29.938C35.7277 29.2961 36.1899 29.3399 38.3529 30.3949C39.5466 30.9766 40.6869 32.0075 41.2021 32.9706C42.5467 35.4854 41.9699 37.8621 38.8882 42.5045L36.2395 46.494L41.9169 46.7801V50.581H35.7095C32.2955 50.581 29.5022 50.4685 29.5022 50.331C29.5022 50.0396 30.8334 47.8951 35.0501 41.3934C36.7261 38.8094 38.097 36.2831 38.097 35.7792C38.097 35.2752 37.6758 34.479 37.1611 34.0097C35.7449 32.7192 33.9997 33.3668 33.3221 35.4349C32.8418 36.9 32.5691 37.1178 31.2159 37.1178C29.1947 37.1178 29.092 36.9711 29.5094 34.6751Z" fill="#111111"/>
<path d="M64.0089 34.8704C64.272 32.5196 66.0993 30.1092 67.8866 29.7553C69.8395 29.3682 70.6126 29.4313 72.2155 30.1054C75.2327 31.3752 76.5702 35.2825 75.1067 38.5511C74.3399 40.2629 74.3355 40.4884 75.0475 41.5126C76.8968 44.1711 75.3473 49.0631 72.2422 50.3695C68.1755 52.0807 64.612 50.2175 63.6675 45.8857C63.3308 44.3432 63.3433 44.3302 65.1568 44.3331C66.6862 44.336 67.1178 44.5716 67.7982 45.7756C68.2457 46.5675 68.9581 47.2152 69.3816 47.2152C72.9093 47.2152 72.8802 42.2516 69.3501 41.8472C68.1487 41.7097 67.9181 41.4544 67.7906 40.123C67.6569 38.7271 67.7715 38.5603 68.865 38.5603C70.2907 38.5603 71.9987 37.0289 71.9987 35.7498C71.9987 35.2618 71.5843 34.4853 71.0781 34.0236C69.7837 32.8442 68.2843 33.4481 67.7968 35.3454C67.4463 36.71 67.2047 36.8855 65.5855 36.9505L63.7677 37.024L64.0089 34.8704Z" fill="#111111"/>
<path d="M83.5798 34.2328C84.1465 32.1032 85.6191 30.4862 87.4909 29.938C88.4644 29.653 88.8933 29.5104 89.3232 29.5076C89.7555 29.5046 90.1889 29.643 91.1785 29.9198C93.6657 30.6156 95.8732 33.2865 95.8732 35.6003C95.8732 37.3515 95.1956 38.7362 91.4254 44.6909L90.1313 46.7344H95.8732V50.581H89.631C84.8723 50.581 83.4255 50.4382 83.5444 49.98C83.6299 49.6497 85.5795 46.5132 87.8767 43.0108C90.1739 39.5084 92.0533 36.221 92.0533 35.7056C92.0533 34.7487 90.4059 33.2712 89.3392 33.2712C88.4754 33.2712 86.8009 35.2339 86.8009 36.247C86.8009 36.9178 86.426 37.1178 85.1693 37.1178C83.2741 37.1178 82.9623 36.5523 83.5798 34.2328Z" fill="#111111"/>
<path fill-rule="evenodd" clip-rule="evenodd" d="M43.3546 44.4504C43.3584 43.0464 44.216 41.2318 47.2299 36.2513L51.1 29.8553L55.0478 30.1458L55.1806 36.4682C55.3071 42.4916 55.3582 42.779 56.2549 42.5425C57.0796 42.3256 57.1965 42.5411 57.1965 44.274C57.1965 45.9136 57.0371 46.2536 56.2688 46.2536C55.5191 46.2536 55.3133 46.6449 55.1944 48.2971C55.0522 50.2805 54.9953 50.345 53.2573 50.4897L51.4667 50.6392V46.2536H43.3494L43.3546 44.4504ZM49.4374 42.632C51.0899 42.5916 51.2394 42.4704 51.3774 41.0553C51.46 40.212 51.46 38.8199 51.3774 37.9621C51.2284 36.4071 51.2227 36.4119 49.4374 39.4392C48.4528 41.1092 47.6468 42.5209 47.6468 42.5757C47.6468 42.6305 48.4528 42.6555 49.4374 42.632Z" fill="#111111"/>
<path fill-rule="evenodd" clip-rule="evenodd" d="M97.3109 44.4504C97.3147 43.0464 98.1723 41.2318 101.186 36.2513L105.056 29.8553L108.902 30.1458L108.953 36.3965C109.001 42.3098 109.056 42.6473 109.959 42.6473C110.714 42.6473 110.945 43.0171 111.06 44.4134C111.187 45.9439 111.059 46.2007 110.105 46.3367C109.165 46.4709 109.004 46.7748 109.004 48.4173C109.004 50.2925 108.96 50.3445 107.214 50.4897L105.423 50.6392V46.2536H97.3056L97.3109 44.4504ZM105.423 42.2977V39.2272C105.423 37.538 105.369 36.1624 105.304 36.1706C104.935 36.2143 101.735 42.4305 102 42.5863C102.176 42.6892 103.017 42.6661 103.871 42.5353L105.423 42.2977Z" fill="#111111"/>
<path d="M58.5741 49.8848C58.4566 49.7665 58.4433 48.7928 58.545 47.7211C58.7207 45.8631 58.8043 45.7727 60.3504 45.7727C61.9533 45.7727 61.9714 45.7968 61.9714 47.9365C61.9714 50.068 61.948 50.1002 60.38 50.1002C59.5043 50.1002 58.6921 50.0031 58.5741 49.8848Z" fill="#111111"/>
<path d="M77.2511 48.2572C77.2511 47.2431 77.4044 46.2593 77.592 46.0704C77.7797 45.8819 78.5852 45.7915 79.3826 45.8703C80.7201 46.0021 80.8437 46.1709 80.9789 48.0567L81.1259 50.1002H79.1883C77.2607 50.1002 77.2511 50.091 77.2511 48.2572Z" fill="#111111"/>
<path d="M112.318 48.1769C112.286 47.2513 112.345 46.3319 112.45 46.1333C112.556 45.9348 113.381 45.7727 114.285 45.7727C115.917 45.7727 115.928 45.7872 115.928 47.9653V50.1584L114.153 50.0089C112.484 49.8689 112.374 49.7588 112.318 48.1769Z" fill="#111111"/>
</svg>
