<svg width="797" height="939" viewBox="0 0 797 939" fill="none" xmlns="http://www.w3.org/2000/svg">
<path fill-rule="evenodd" clip-rule="evenodd" d="M308.157 29.3108L270.464 58.2428L267.773 79.7948C265.139 100.879 264.613 101.627 243.777 113.96C222.589 126.499 222.48 126.659 224.26 142.974C226.13 160.138 219.282 171.38 206.961 171.38C197.779 171.38 184.188 188.373 184.188 199.848C184.188 206.059 187.339 212.247 191.979 215.146C203.79 222.522 202.644 244.273 190.148 249.966C177.258 255.842 168.606 248.586 168.606 231.905C168.606 224.665 165.575 216.603 161.446 212.867C154.746 206.8 153.834 206.885 147.208 214.211C142.569 219.339 135.202 222.035 125.83 222.035C115.748 222.035 108.923 224.809 102.695 231.445C89.9993 244.963 94.557 255.756 114.385 259.107C134.131 262.443 146.078 277.409 136.581 286.913C131.229 292.263 129.433 292.259 119.028 286.878C103.232 278.707 98.4875 284.392 98.4875 311.496C98.4875 338.905 92.5742 343.172 52.6457 344.559C27.0447 345.447 22.5377 346.729 16.2465 354.916C12.2965 360.056 9.02433 366.945 8.97758 370.229C8.93084 373.514 6.44553 385.633 3.45771 397.159C-1.49342 416.248 -1.32981 419.63 5.2652 435.026C9.25026 444.327 14.1897 451.933 16.2465 451.933C18.2994 451.933 25.2606 456.379 31.7154 461.811C45.9572 473.796 58.4071 471.942 74.9784 455.366C90.1785 440.161 102.06 440.859 113.473 457.622C120.844 468.45 126.126 471.642 140.742 474.096C150.71 475.772 161.497 476.633 164.71 476.006C167.924 475.378 181.948 474.268 195.874 473.539C232.394 471.626 241.377 467.122 246.48 448.173C250.395 433.623 251.56 432.578 261.283 434.866C267.087 436.233 273.499 438.879 275.536 440.746C277.57 442.612 283.269 444.14 288.197 444.14C294.924 444.14 297.156 441.926 297.156 435.267C297.156 428.035 301.34 419.194 311.051 405.891C311.546 405.217 319.142 406.596 327.926 408.965C341.14 412.523 343.902 414.927 343.902 422.86C343.902 428.132 347.618 436.167 352.16 440.711C358.969 447.522 360.009 451.937 358.097 465.894C355.366 485.798 362.417 492.944 377.843 485.915C393.503 478.776 397.612 488.089 385.7 503.71C380.176 510.954 375.085 522.784 374.388 530.001C373.414 540.081 370.118 544.87 360.193 550.644C350.571 556.244 346.138 557.039 342.858 553.758C340.431 551.33 330.973 549.347 321.834 549.347C309.388 549.347 304.207 551.241 301.184 556.895C295.89 566.788 273.596 563.924 254.096 550.843C245.156 544.843 234.634 541.554 224.385 541.554C205.597 541.554 198.406 534.708 202.025 520.279C205.648 505.838 191.332 490.898 173.869 490.898C163.499 490.898 159.837 493.178 154.917 502.697C147.461 517.115 150.547 539.722 161.629 551.903C171.434 562.677 167.651 570.252 142.514 590.183C116.796 610.574 106.31 623.592 106.356 635.072C106.419 650.058 110.525 653.557 131.599 656.612C142.311 658.163 157.48 663.193 165.31 667.791C178.255 675.393 179.054 676.823 174.13 683.556C169.346 690.103 166.662 690.492 151.022 686.911C109.742 677.462 92.7846 694.393 98.4642 739.379C100.163 752.814 103.707 766.401 106.341 769.577C114.12 778.956 127.431 776.373 136.827 763.658C143.449 754.7 148.529 751.969 158.567 751.969C179.576 751.969 179.895 768.155 158.965 772.04C149.425 773.813 140.235 790.755 145.424 797.009C147.863 799.947 146.48 803.812 141.322 808.481C133.414 815.642 130.497 833.797 137.255 833.797C139.296 833.797 149.97 842.408 160.971 852.937C171.975 863.461 182.563 873.545 184.495 875.342C186.432 877.138 196.762 888.465 207.459 900.514C229.613 925.467 242.701 930.241 265.128 921.54C273.102 918.446 295.127 914.284 314.074 912.289C345.203 909.008 349.764 907.453 361.412 896.161C379.892 878.245 392.229 881.946 420.88 913.992C437.521 932.606 445.83 939 453.38 939C463.282 939.004 478.272 927.68 486.086 914.296C488.583 910.021 498.372 906.281 513.354 903.884C536.252 900.217 546.466 893.274 546.466 881.374C546.466 878.358 551.725 870.974 558.152 864.969C564.58 858.964 569.839 850.54 569.839 846.254C569.839 836.641 587.15 829.9 611.82 829.9C643.677 829.9 678.912 803.38 678.912 779.404C678.912 774.054 682.764 771.471 693.52 769.608C712.276 766.362 724.94 755.136 740.464 727.993C752.372 707.174 752.925 704.341 752.925 664.035C752.925 625.279 753.662 621.052 762.025 611.906C773.747 599.079 785.079 568.245 781.58 558.695C780.088 554.627 775.659 547.114 771.74 542.002C760.292 527.078 762.594 519.094 779.827 513.927C792.309 510.186 795.343 507.311 796.722 497.904C798.985 482.478 787.112 467.519 772.598 467.519C766.587 467.519 759.489 464.889 756.821 461.674C753.662 457.863 744.99 455.829 731.925 455.829C714.278 455.829 709.623 453.963 693.025 440.243C677.404 427.33 671.257 424.657 657.198 424.657C636.361 424.657 630.347 416.026 631.796 388.22C632.626 372.361 630.538 365.667 618.824 346.69C605.533 325.15 605.096 323.358 609.752 309.322C613.678 297.473 617.219 293.915 627.803 291.184C653.72 284.505 659.434 277.931 659.434 254.809C659.434 235.622 658.499 233.44 647.943 227.981C641.62 224.712 633.732 222.035 630.413 222.035C626.938 222.035 624.375 218.668 624.375 214.106C624.375 198.656 612.922 186.978 597.633 186.837C575.382 186.631 567.891 177.493 567.891 150.556V127.781L549.068 120.611C533.529 114.692 526.404 114.081 508.166 117.108C487.999 120.455 485.498 120.058 479.269 112.522C475.518 107.986 472.452 99.2698 472.452 93.1522C472.452 85.7292 469.64 80.5273 463.999 77.5075C456.71 73.607 454.568 74.324 448.475 82.686C439.422 95.12 423.576 93.2223 420.081 79.2843C418.773 74.0707 413.366 67.8284 408.068 65.4125C400.877 62.1355 398.423 57.9779 398.38 48.9846C398.29 30.8188 393.643 25.9286 379.448 29.0497C366.604 31.8709 363.683 27.23 371.006 15.6494C373.297 12.0256 373.102 8.10179 370.469 4.93388C361.579 -5.78559 345.877 0.359304 308.157 29.3108Z" fill="#FE9BC9"/>
</svg>
