<svg width="181" height="140" viewBox="0 0 181 140" fill="none" xmlns="http://www.w3.org/2000/svg">
<path fill-rule="evenodd" clip-rule="evenodd" d="M2.28231 17.7258C6.31033 8.59624 15.0927 2.05532 25.9673 0.0858631C26.454 -0.0023195 29.0821 -0.0266992 31.8076 0.0320485C37.3901 0.151623 40.276 0.764132 44.5896 2.74463C48.5815 4.57719 52.8003 7.7593 55.4175 10.9121L56.3742 12.0646L56.4075 6.22H68.796V1.21034H90.3873V93.054H86.6707C84.6266 93.054 82.9542 93.1469 82.9542 93.2604C82.9542 93.374 83.4189 93.9661 83.9867 94.5766C89.2875 100.273 91.7058 110.388 89.6765 118.375C88.7492 122.026 87.8236 124.048 85.5986 127.287C81.463 133.306 75.0886 137.611 67.7341 139.35C64.0519 140.221 57.2163 140.216 53.5879 139.34C43.0853 136.804 34.9121 129.226 31.9406 119.271C30.8675 115.676 30.7843 109.103 31.7651 105.411C33.9179 97.3089 40.5014 89.8759 48.5345 86.4777C53.6672 84.3065 61.3151 83.4455 66.0748 84.5029C67.401 84.7975 68.557 85.0386 68.6441 85.0386C68.7315 85.0386 68.7613 77.6637 68.7107 68.6496L68.619 52.261L56.9384 52.1418L56.8361 49.2195C56.7799 47.6124 56.6206 46.3009 56.4822 46.3052C56.3438 46.3096 55.7527 46.9308 55.1687 47.6856C53.8647 49.3712 50.0576 52.5152 47.307 54.1788C35.5807 61.2691 19.4382 59.6229 9.32851 50.305C4.90868 46.2314 2.26391 41.9726 0.748964 36.489C0.162854 34.3682 -0.0010321 32.7849 4.88217e-06 29.2644C0.00143073 24.2508 0.487775 21.7933 2.28231 17.7258ZM40.443 25.743C39.4997 23.3634 38.0209 21.773 35.733 20.6772C32.9763 19.357 28.8283 19.3129 26.3212 20.5773C22.5739 22.4673 20.1911 26.7041 20.8116 30.3732C22.1814 38.4732 32.6114 41.6439 38.3603 35.7085C41.1803 32.7972 41.8914 29.395 40.443 25.743ZM61.8938 32.9382H68.796V25.2567H61.8938V32.9382ZM64.6129 120.088C72.4799 116.366 71.6725 105.899 63.3383 103.564C60.9357 102.89 59.7602 102.956 57.3324 103.898C53.4318 105.411 51.4557 108.169 51.4634 112.091C51.4688 114.764 52.2673 116.551 54.2802 118.395C57.2014 121.069 61.165 121.719 64.6129 120.088Z" fill="#111111"/>
<path d="M109.363 61.4932C109.379 61.1258 109.417 47.4117 109.447 31.0178L109.501 1.21034H177.106V18.9111H131.092V23.9158L176.222 24.0878L176.412 39.2837H131.062L131.269 44.301L176.93 44.4604L177.118 62.3281H154.099L154.099 72.5144L181 72.3134V93.054H105.243L105.43 72.5144L132.3 72.4122L132.278 71.6284C132.265 71.1972 132.232 68.9305 132.204 66.591L132.154 62.3375L120.743 62.2493C109.588 62.1631 109.333 62.1461 109.363 61.4932Z" fill="#111111"/>
</svg>
